<!DOCTYPE svg PUBLIC "-//W3C//DTD SVG 20010904//EN" "http://www.w3.org/TR/2001/REC-SVG-20010904/DTD/svg10.dtd">
<svg
	version="1.0"
	xmlns="http://www.w3.org/2000/svg"
	width="500px"
	height="500px"
	viewBox="0 0 5000 5000"
	preserveAspectRatio="xMidYMid meet">
	<g id="layer1" fill="#0984e3" stroke="none">
		<path d="M900 4235 l765 -765 797 0 798 0 2 765 3 765 -1565 0 -1565 0 765 -765z"/>
		<path d="M3460 4172 l0 -702 695 0 c382 0 695 3 695 8 0 4 -313 320 -695 702 l-695 695 0 -703z"/>
		<path d="M0 3300 l0 -1565 765 3 765 2 0 798 0 797 -765 765 -765 765 0 -1565z"/>
		<path d="M4228 3273 l-768 -3 0 -798 0 -797 770 -770 770 -770 0 1573 c0 864 -1 1571 -2 1570 -2 -2 -348 -4 -770 -5z"/>
		<path d="M140 1532 c0 -4 313 -320 695 -702 l695 -695 0 703 0 702 -695 0 c-382 0 -695 -3 -695 -8z"/>
		<path d="M1728 770 l-3 -770 1570 0 1570 0 -770 770 -770 770 -797 0 -798 0 -2 -770z"/>
	</g>

	<g id="layer2" fill="#6c5ce7" stroke="none">
		<path d="M1728 2515 l0 -775 765 0 765 0 0 765 0 765 -765 0 -765 0 0 -765z"/>
	</g>
</svg>