<svg data-v-423bf9ae="" xmlns="http://www.w3.org/2000/svg" viewBox="0 0 53.884687912815565 60" class="icon"><!----><!----><!----><!----><g data-v-423bf9ae="" id="1b6d717f-1042-461c-a31a-cb5d9e74ca73" transform="matrix(0.725680630098428,0,0,0.725680630098428,-5.712558799317101,-2.544961947609174)" stroke="none" fill="white"><path d="M45 5.507c.757 0 1.493.164 1.97.439l29.786 17.197-29.794 17.29c-.475.275-1.209.44-1.963.44s-1.488-.164-1.962-.439l-29.8-17.287L43.03 5.946c.476-.275 1.213-.439 1.97-.439m0-2c-1.077 0-2.153.236-2.97.708L12.214 21.429c-1.634.943-1.635 2.489-.003 3.436l29.822 17.3c.815.473 1.891.709 2.966.709 1.076 0 2.151-.237 2.967-.71l29.815-17.302c1.632-.947 1.63-2.493-.004-3.437L47.97 4.214c-.817-.471-1.893-.707-2.97-.707zM9.872 28.793l29.871 17.328c1.013.588 1.971 2.25 1.971 3.421v34.494L11.842 66.79c-1.013-.584-1.97-2.243-1.97-3.412V28.793m-.355-2.157c-.973 0-1.645.776-1.645 2.114v34.628c0 1.887 1.336 4.201 2.97 5.145l29.901 17.263c.473.273.922.402 1.32.402.977 0 1.65-.777 1.65-2.117V49.542c0-1.887-1.335-4.204-2.967-5.151l-29.908-17.35c-.473-.274-.922-.405-1.321-.405zM80.127 28.786v34.592c0 1.169-.958 2.827-1.971 3.412l-29.87 17.246V49.542c0-1.171.958-2.834 1.971-3.422l29.87-17.334m.355-2.157c-.398 0-.848.13-1.322.405L49.253 44.391c-1.632.947-2.967 3.265-2.967 5.151V84.07c0 1.34.675 2.117 1.65 2.117.398 0 .847-.129 1.32-.402l29.899-17.263c1.634-.943 2.971-3.258 2.971-5.145V28.742c.001-1.338-.671-2.113-1.644-2.113z"></path></g><!----></svg>